<mxfile host="Electron" agent="Mozilla/5.0 (Windows NT 10.0; Win64; x64) AppleWebKit/537.36 (KHTML, like Gecko) draw.io/24.7.5 Chrome/126.0.6478.183 Electron/31.3.0 Safari/537.36" version="24.7.5" pages="2">
  <diagram id="Ay0MsjXHLMUna2k44FVB" name="Page-1">
    <mxGraphModel dx="1195" dy="703" grid="1" gridSize="10" guides="1" tooltips="1" connect="1" arrows="1" fold="1" page="1" pageScale="1" pageWidth="850" pageHeight="1100" math="0" shadow="0">
      <root>
        <mxCell id="0" />
        <mxCell id="1" parent="0" />
        <mxCell id="9TsJbhA2AvxZcMXzrGc_-1" value="Availability Zone - 2" style="fillColor=none;strokeColor=#147EBA;dashed=1;verticalAlign=top;fontStyle=0;fontColor=#147EBA;whiteSpace=wrap;html=1;" vertex="1" parent="1">
          <mxGeometry x="439" y="140" width="130" height="470" as="geometry" />
        </mxCell>
        <mxCell id="9TsJbhA2AvxZcMXzrGc_-2" value="Availability Zone - 1" style="fillColor=none;strokeColor=#147EBA;dashed=1;verticalAlign=top;fontStyle=0;fontColor=#147EBA;whiteSpace=wrap;html=1;" vertex="1" parent="1">
          <mxGeometry x="74" y="140" width="130" height="470" as="geometry" />
        </mxCell>
        <mxCell id="9TsJbhA2AvxZcMXzrGc_-3" value="" style="fillColor=none;strokeColor=#33FF33;dashed=1;verticalAlign=top;fontStyle=0;fontColor=#6bf410;whiteSpace=wrap;html=1;" vertex="1" parent="1">
          <mxGeometry x="30" y="440" width="930" height="180" as="geometry" />
        </mxCell>
        <mxCell id="9TsJbhA2AvxZcMXzrGc_-7" style="edgeStyle=orthogonalEdgeStyle;rounded=0;orthogonalLoop=1;jettySize=auto;html=1;entryX=0.5;entryY=1;entryDx=0;entryDy=0;" edge="1" parent="1" source="9TsJbhA2AvxZcMXzrGc_-8">
          <mxGeometry relative="1" as="geometry">
            <mxPoint x="135" y="420" as="targetPoint" />
          </mxGeometry>
        </mxCell>
        <mxCell id="9TsJbhA2AvxZcMXzrGc_-8" value="Primary" style="sketch=0;outlineConnect=0;fontColor=#232F3E;gradientColor=none;fillColor=#7AA116;strokeColor=none;dashed=0;verticalLabelPosition=bottom;verticalAlign=top;align=center;html=1;fontSize=12;fontStyle=0;aspect=fixed;pointerEvents=1;shape=mxgraph.aws4.file_system;" vertex="1" parent="1">
          <mxGeometry x="268" y="520" width="78" height="73" as="geometry" />
        </mxCell>
        <mxCell id="9TsJbhA2AvxZcMXzrGc_-11" style="edgeStyle=orthogonalEdgeStyle;rounded=0;orthogonalLoop=1;jettySize=auto;html=1;" edge="1" parent="1">
          <mxGeometry relative="1" as="geometry">
            <mxPoint x="139" y="319" as="sourcePoint" />
            <mxPoint x="139" y="351" as="targetPoint" />
          </mxGeometry>
        </mxCell>
        <mxCell id="9TsJbhA2AvxZcMXzrGc_-13" style="edgeStyle=orthogonalEdgeStyle;rounded=0;orthogonalLoop=1;jettySize=auto;html=1;" edge="1" parent="1">
          <mxGeometry relative="1" as="geometry">
            <mxPoint x="504" y="319" as="sourcePoint" />
            <mxPoint x="504" y="351" as="targetPoint" />
          </mxGeometry>
        </mxCell>
        <mxCell id="9TsJbhA2AvxZcMXzrGc_-19" value="Availability Zone - 3" style="fillColor=none;strokeColor=#147EBA;dashed=1;verticalAlign=top;fontStyle=0;fontColor=#147EBA;whiteSpace=wrap;html=1;" vertex="1" parent="1">
          <mxGeometry x="810" y="140" width="130" height="470" as="geometry" />
        </mxCell>
        <mxCell id="9TsJbhA2AvxZcMXzrGc_-23" style="edgeStyle=orthogonalEdgeStyle;rounded=0;orthogonalLoop=1;jettySize=auto;html=1;entryX=0.5;entryY=1;entryDx=0;entryDy=0;" edge="1" parent="1" source="9TsJbhA2AvxZcMXzrGc_-24">
          <mxGeometry relative="1" as="geometry">
            <mxPoint x="875" y="420" as="targetPoint" />
          </mxGeometry>
        </mxCell>
        <mxCell id="9TsJbhA2AvxZcMXzrGc_-24" value="Secondary - DR" style="sketch=0;outlineConnect=0;fontColor=#232F3E;gradientColor=none;fillColor=#7AA116;strokeColor=none;dashed=0;verticalLabelPosition=bottom;verticalAlign=top;align=center;html=1;fontSize=12;fontStyle=0;aspect=fixed;pointerEvents=1;shape=mxgraph.aws4.file_system;" vertex="1" parent="1">
          <mxGeometry x="836" y="504" width="78" height="73" as="geometry" />
        </mxCell>
        <mxCell id="9TsJbhA2AvxZcMXzrGc_-25" style="edgeStyle=orthogonalEdgeStyle;rounded=0;orthogonalLoop=1;jettySize=auto;html=1;" edge="1" parent="1">
          <mxGeometry relative="1" as="geometry">
            <mxPoint x="875" y="319" as="sourcePoint" />
            <mxPoint x="875" y="351" as="targetPoint" />
          </mxGeometry>
        </mxCell>
        <mxCell id="9TsJbhA2AvxZcMXzrGc_-29" value="VPC" style="points=[[0,0],[0.25,0],[0.5,0],[0.75,0],[1,0],[1,0.25],[1,0.5],[1,0.75],[1,1],[0.75,1],[0.5,1],[0.25,1],[0,1],[0,0.75],[0,0.5],[0,0.25]];outlineConnect=0;gradientColor=none;html=1;whiteSpace=wrap;fontSize=12;fontStyle=0;container=1;pointerEvents=0;collapsible=0;recursiveResize=0;shape=mxgraph.aws4.group;grIcon=mxgraph.aws4.group_vpc2;strokeColor=#8C4FFF;fillColor=none;verticalAlign=top;align=left;spacingLeft=30;fontColor=#AAB7B8;dashed=0;" vertex="1" parent="1">
          <mxGeometry x="12" y="170" width="986" height="486" as="geometry" />
        </mxCell>
        <mxCell id="9TsJbhA2AvxZcMXzrGc_-30" value="" style="sketch=0;outlineConnect=0;fontColor=#232F3E;gradientColor=none;fillColor=#7AA116;strokeColor=none;dashed=0;verticalLabelPosition=bottom;verticalAlign=top;align=center;html=1;fontSize=12;fontStyle=0;aspect=fixed;pointerEvents=1;shape=mxgraph.aws4.bucket_with_objects;" vertex="1" parent="9TsJbhA2AvxZcMXzrGc_-29">
          <mxGeometry x="259" y="76" width="53.85" height="56" as="geometry" />
        </mxCell>
        <mxCell id="9TsJbhA2AvxZcMXzrGc_-35" value="" style="endArrow=classic;html=1;rounded=0;" edge="1" parent="9TsJbhA2AvxZcMXzrGc_-29" target="9TsJbhA2AvxZcMXzrGc_-30">
          <mxGeometry width="50" height="50" relative="1" as="geometry">
            <mxPoint x="168" y="105" as="sourcePoint" />
            <mxPoint x="218" y="55" as="targetPoint" />
          </mxGeometry>
        </mxCell>
        <mxCell id="9TsJbhA2AvxZcMXzrGc_-36" value="S3 - Backup" style="text;strokeColor=none;align=center;fillColor=none;html=1;verticalAlign=middle;whiteSpace=wrap;rounded=0;fontColor=#232f3e;" vertex="1" parent="9TsJbhA2AvxZcMXzrGc_-29">
          <mxGeometry x="247.5" y="53" width="72" height="18" as="geometry" />
        </mxCell>
        <mxCell id="9TsJbhA2AvxZcMXzrGc_-6" value="Ontap" style="sketch=0;points=[[0,0,0],[0.25,0,0],[0.5,0,0],[0.75,0,0],[1,0,0],[0,1,0],[0.25,1,0],[0.5,1,0],[0.75,1,0],[1,1,0],[0,0.25,0],[0,0.5,0],[0,0.75,0],[1,0.25,0],[1,0.5,0],[1,0.75,0]];outlineConnect=0;fontColor=#232F3E;fillColor=#7AA116;strokeColor=#ffffff;dashed=0;verticalLabelPosition=bottom;verticalAlign=top;align=center;html=1;fontSize=12;fontStyle=0;aspect=fixed;shape=mxgraph.aws4.resourceIcon;resIcon=mxgraph.aws4.fsx_for_netapp_ontap;" vertex="1" parent="9TsJbhA2AvxZcMXzrGc_-29">
          <mxGeometry x="269" y="268" width="58" height="58" as="geometry" />
        </mxCell>
        <mxCell id="9TsJbhA2AvxZcMXzrGc_-22" value="Ontap" style="sketch=0;points=[[0,0,0],[0.25,0,0],[0.5,0,0],[0.75,0,0],[1,0,0],[0,1,0],[0.25,1,0],[0.5,1,0],[0.75,1,0],[1,1,0],[0,0.25,0],[0,0.5,0],[0,0.75,0],[1,0.25,0],[1,0.5,0],[1,0.75,0]];outlineConnect=0;fontColor=#232F3E;fillColor=#7AA116;strokeColor=#ffffff;dashed=0;verticalLabelPosition=bottom;verticalAlign=top;align=center;html=1;fontSize=12;fontStyle=0;aspect=fixed;shape=mxgraph.aws4.resourceIcon;resIcon=mxgraph.aws4.fsx_for_netapp_ontap;" vertex="1" parent="9TsJbhA2AvxZcMXzrGc_-29">
          <mxGeometry x="638" y="324" width="58" height="58" as="geometry" />
        </mxCell>
        <mxCell id="9TsJbhA2AvxZcMXzrGc_-46" value="" style="endArrow=classic;startArrow=classic;html=1;rounded=0;dashed=1;entryX=-0.077;entryY=1.055;entryDx=0;entryDy=0;entryPerimeter=0;" edge="1" parent="9TsJbhA2AvxZcMXzrGc_-29" target="9TsJbhA2AvxZcMXzrGc_-24">
          <mxGeometry width="50" height="50" relative="1" as="geometry">
            <mxPoint x="338" y="410" as="sourcePoint" />
            <mxPoint x="408" y="410" as="targetPoint" />
          </mxGeometry>
        </mxCell>
        <mxCell id="9TsJbhA2AvxZcMXzrGc_-49" value="SQL Server EE" style="sketch=0;points=[[0,0,0],[0.25,0,0],[0.5,0,0],[0.75,0,0],[1,0,0],[0,1,0],[0.25,1,0],[0.5,1,0],[0.75,1,0],[1,1,0],[0,0.25,0],[0,0.5,0],[0,0.75,0],[1,0.25,0],[1,0.5,0],[1,0.75,0]];outlineConnect=0;fontColor=#232F3E;fillColor=#C925D1;strokeColor=#ffffff;dashed=0;verticalLabelPosition=bottom;verticalAlign=top;align=center;html=1;fontSize=12;fontStyle=0;aspect=fixed;shape=mxgraph.aws4.resourceIcon;resIcon=mxgraph.aws4.database;labelBorderColor=default;" vertex="1" parent="9TsJbhA2AvxZcMXzrGc_-29">
          <mxGeometry x="88" y="49" width="78" height="78" as="geometry" />
        </mxCell>
        <mxCell id="9TsJbhA2AvxZcMXzrGc_-52" value="EC2" style="sketch=0;points=[[0,0,0],[0.25,0,0],[0.5,0,0],[0.75,0,0],[1,0,0],[0,1,0],[0.25,1,0],[0.5,1,0],[0.75,1,0],[1,1,0],[0,0.25,0],[0,0.5,0],[0,0.75,0],[1,0.25,0],[1,0.5,0],[1,0.75,0]];outlineConnect=0;fontColor=#232F3E;fillColor=#ED7100;strokeColor=#ffffff;dashed=0;verticalLabelPosition=bottom;verticalAlign=top;align=center;html=1;fontSize=12;fontStyle=0;aspect=fixed;shape=mxgraph.aws4.resourceIcon;resIcon=mxgraph.aws4.ec2;direction=south;" vertex="1" parent="9TsJbhA2AvxZcMXzrGc_-29">
          <mxGeometry x="107.5" y="191" width="39" height="39" as="geometry" />
        </mxCell>
        <mxCell id="9TsJbhA2AvxZcMXzrGc_-53" value="EC2" style="sketch=0;points=[[0,0,0],[0.25,0,0],[0.5,0,0],[0.75,0,0],[1,0,0],[0,1,0],[0.25,1,0],[0.5,1,0],[0.75,1,0],[1,1,0],[0,0.25,0],[0,0.5,0],[0,0.75,0],[1,0.25,0],[1,0.5,0],[1,0.75,0]];outlineConnect=0;fontColor=#232F3E;fillColor=#ED7100;strokeColor=#ffffff;dashed=0;verticalLabelPosition=bottom;verticalAlign=top;align=center;html=1;fontSize=12;fontStyle=0;aspect=fixed;shape=mxgraph.aws4.resourceIcon;resIcon=mxgraph.aws4.ec2;direction=south;" vertex="1" parent="9TsJbhA2AvxZcMXzrGc_-29">
          <mxGeometry x="473.5" y="191" width="39" height="39" as="geometry" />
        </mxCell>
        <mxCell id="9TsJbhA2AvxZcMXzrGc_-57" value="FCI - Paused - DR" style="text;strokeColor=none;align=center;fillColor=none;html=1;verticalAlign=middle;whiteSpace=wrap;rounded=0;" vertex="1" parent="9TsJbhA2AvxZcMXzrGc_-29">
          <mxGeometry x="824" y="10" width="80" height="30" as="geometry" />
        </mxCell>
        <mxCell id="9TsJbhA2AvxZcMXzrGc_-9" style="edgeStyle=orthogonalEdgeStyle;rounded=0;orthogonalLoop=1;jettySize=auto;html=1;entryX=0.5;entryY=1;entryDx=0;entryDy=0;" edge="1" parent="1" source="9TsJbhA2AvxZcMXzrGc_-8">
          <mxGeometry relative="1" as="geometry">
            <mxPoint x="504" y="490" as="sourcePoint" />
            <mxPoint x="504" y="420" as="targetPoint" />
          </mxGeometry>
        </mxCell>
        <mxCell id="9TsJbhA2AvxZcMXzrGc_-47" value="Replicação assíncrona" style="text;strokeColor=none;align=center;fillColor=none;html=1;verticalAlign=middle;whiteSpace=wrap;rounded=0;fontColor=#232f3e;" vertex="1" parent="1">
          <mxGeometry x="600" y="580" width="160" height="30" as="geometry" />
        </mxCell>
        <mxCell id="9TsJbhA2AvxZcMXzrGc_-50" value="SQL Server EE" style="sketch=0;points=[[0,0,0],[0.25,0,0],[0.5,0,0],[0.75,0,0],[1,0,0],[0,1,0],[0.25,1,0],[0.5,1,0],[0.75,1,0],[1,1,0],[0,0.25,0],[0,0.5,0],[0,0.75,0],[1,0.25,0],[1,0.5,0],[1,0.75,0]];outlineConnect=0;fontColor=#232F3E;fillColor=#C925D1;strokeColor=#ffffff;dashed=0;verticalLabelPosition=bottom;verticalAlign=top;align=center;html=1;fontSize=12;fontStyle=0;aspect=fixed;shape=mxgraph.aws4.resourceIcon;resIcon=mxgraph.aws4.database;labelBorderColor=default;" vertex="1" parent="1">
          <mxGeometry x="470" y="219" width="78" height="78" as="geometry" />
        </mxCell>
        <mxCell id="9TsJbhA2AvxZcMXzrGc_-51" value="SQL Server EE" style="sketch=0;points=[[0,0,0],[0.25,0,0],[0.5,0,0],[0.75,0,0],[1,0,0],[0,1,0],[0.25,1,0],[0.5,1,0],[0.75,1,0],[1,1,0],[0,0.25,0],[0,0.5,0],[0,0.75,0],[1,0.25,0],[1,0.5,0],[1,0.75,0]];outlineConnect=0;fontColor=#232F3E;fillColor=#C925D1;strokeColor=#ffffff;dashed=0;verticalLabelPosition=bottom;verticalAlign=top;align=center;html=1;fontSize=12;fontStyle=0;aspect=fixed;shape=mxgraph.aws4.resourceIcon;resIcon=mxgraph.aws4.database;labelBorderColor=default;" vertex="1" parent="1">
          <mxGeometry x="840" y="219" width="78" height="78" as="geometry" />
        </mxCell>
        <mxCell id="9TsJbhA2AvxZcMXzrGc_-54" value="EC2" style="sketch=0;points=[[0,0,0],[0.25,0,0],[0.5,0,0],[0.75,0,0],[1,0,0],[0,1,0],[0.25,1,0],[0.5,1,0],[0.75,1,0],[1,1,0],[0,0.25,0],[0,0.5,0],[0,0.75,0],[1,0.25,0],[1,0.5,0],[1,0.75,0]];outlineConnect=0;fontColor=#232F3E;fillColor=#ED7100;strokeColor=#ffffff;dashed=0;verticalLabelPosition=bottom;verticalAlign=top;align=center;html=1;fontSize=12;fontStyle=0;aspect=fixed;shape=mxgraph.aws4.resourceIcon;resIcon=mxgraph.aws4.ec2;direction=south;" vertex="1" parent="1">
          <mxGeometry x="855.5" y="360" width="39" height="39" as="geometry" />
        </mxCell>
        <mxCell id="9TsJbhA2AvxZcMXzrGc_-55" value="FCI - UP - Nó Ativo (Owner)" style="text;strokeColor=none;align=center;fillColor=none;html=1;verticalAlign=middle;whiteSpace=wrap;rounded=0;" vertex="1" parent="1">
          <mxGeometry x="99" y="180" width="80" height="30" as="geometry" />
        </mxCell>
        <mxCell id="9TsJbhA2AvxZcMXzrGc_-56" value="FCI - UP - Nó Passivo" style="text;strokeColor=none;align=center;fillColor=none;html=1;verticalAlign=middle;whiteSpace=wrap;rounded=0;" vertex="1" parent="1">
          <mxGeometry x="464" y="180" width="80" height="30" as="geometry" />
        </mxCell>
      </root>
    </mxGraphModel>
  </diagram>
  <diagram id="Ht1M8jgEwFfnCIfOTk4-" name="Page-2">
    <mxGraphModel dx="1434" dy="844" grid="1" gridSize="10" guides="1" tooltips="1" connect="1" arrows="1" fold="1" page="1" pageScale="1" pageWidth="1169" pageHeight="827" math="0" shadow="0">
      <root>
        <mxCell id="0" />
        <mxCell id="1" parent="0" />
        <mxCell id="gKZlpl1UDv_a1la2Z4zy-9" value="Availability Zone - 2" style="fillColor=none;strokeColor=#147EBA;dashed=1;verticalAlign=top;fontStyle=0;fontColor=#147EBA;whiteSpace=wrap;html=1;" parent="1" vertex="1">
          <mxGeometry x="439" y="140" width="130" height="470" as="geometry" />
        </mxCell>
        <mxCell id="gKZlpl1UDv_a1la2Z4zy-8" value="Availability Zone - 1" style="fillColor=none;strokeColor=#147EBA;dashed=1;verticalAlign=top;fontStyle=0;fontColor=#147EBA;whiteSpace=wrap;html=1;" parent="1" vertex="1">
          <mxGeometry x="74" y="140" width="130" height="470" as="geometry" />
        </mxCell>
        <mxCell id="gKZlpl1UDv_a1la2Z4zy-11" value="" style="fillColor=none;strokeColor=#33FF33;dashed=1;verticalAlign=top;fontStyle=0;fontColor=#6bf410;whiteSpace=wrap;html=1;" parent="1" vertex="1">
          <mxGeometry x="30" y="470" width="930" height="150" as="geometry" />
        </mxCell>
        <mxCell id="gKZlpl1UDv_a1la2Z4zy-17" style="edgeStyle=orthogonalEdgeStyle;rounded=0;orthogonalLoop=1;jettySize=auto;html=1;dashed=1;" parent="1" source="gKZlpl1UDv_a1la2Z4zy-1" target="gKZlpl1UDv_a1la2Z4zy-2" edge="1">
          <mxGeometry relative="1" as="geometry">
            <Array as="points">
              <mxPoint x="260" y="527" />
              <mxPoint x="260" y="527" />
            </Array>
          </mxGeometry>
        </mxCell>
        <mxCell id="gKZlpl1UDv_a1la2Z4zy-18" style="edgeStyle=orthogonalEdgeStyle;rounded=0;orthogonalLoop=1;jettySize=auto;html=1;dashed=1;" parent="1" target="gKZlpl1UDv_a1la2Z4zy-3" edge="1">
          <mxGeometry relative="1" as="geometry">
            <Array as="points">
              <mxPoint x="295" y="527" />
              <mxPoint x="295" y="527" />
            </Array>
            <mxPoint x="270" y="527" as="sourcePoint" />
          </mxGeometry>
        </mxCell>
        <mxCell id="gKZlpl1UDv_a1la2Z4zy-1" value="Ontap" style="sketch=0;points=[[0,0,0],[0.25,0,0],[0.5,0,0],[0.75,0,0],[1,0,0],[0,1,0],[0.25,1,0],[0.5,1,0],[0.75,1,0],[1,1,0],[0,0.25,0],[0,0.5,0],[0,0.75,0],[1,0.25,0],[1,0.5,0],[1,0.75,0]];outlineConnect=0;fontColor=#232F3E;fillColor=#7AA116;strokeColor=#ffffff;dashed=0;verticalLabelPosition=bottom;verticalAlign=top;align=center;html=1;fontSize=12;fontStyle=0;aspect=fixed;shape=mxgraph.aws4.resourceIcon;resIcon=mxgraph.aws4.fsx_for_netapp_ontap;" parent="1" vertex="1">
          <mxGeometry x="269" y="450" width="78" height="78" as="geometry" />
        </mxCell>
        <mxCell id="gKZlpl1UDv_a1la2Z4zy-15" style="edgeStyle=orthogonalEdgeStyle;rounded=0;orthogonalLoop=1;jettySize=auto;html=1;entryX=0.5;entryY=1;entryDx=0;entryDy=0;" parent="1" source="gKZlpl1UDv_a1la2Z4zy-2" target="gKZlpl1UDv_a1la2Z4zy-10" edge="1">
          <mxGeometry relative="1" as="geometry" />
        </mxCell>
        <mxCell id="gKZlpl1UDv_a1la2Z4zy-2" value="Primary" style="sketch=0;outlineConnect=0;fontColor=#232F3E;gradientColor=none;fillColor=#7AA116;strokeColor=none;dashed=0;verticalLabelPosition=bottom;verticalAlign=top;align=center;html=1;fontSize=12;fontStyle=0;aspect=fixed;pointerEvents=1;shape=mxgraph.aws4.file_system;" parent="1" vertex="1">
          <mxGeometry x="96" y="490" width="78" height="73" as="geometry" />
        </mxCell>
        <mxCell id="gKZlpl1UDv_a1la2Z4zy-16" style="edgeStyle=orthogonalEdgeStyle;rounded=0;orthogonalLoop=1;jettySize=auto;html=1;entryX=0.5;entryY=1;entryDx=0;entryDy=0;" parent="1" source="gKZlpl1UDv_a1la2Z4zy-3" target="gKZlpl1UDv_a1la2Z4zy-14" edge="1">
          <mxGeometry relative="1" as="geometry" />
        </mxCell>
        <mxCell id="gKZlpl1UDv_a1la2Z4zy-3" value="Secondary" style="sketch=0;outlineConnect=0;fontColor=#232F3E;gradientColor=none;fillColor=#7AA116;strokeColor=none;dashed=0;verticalLabelPosition=bottom;verticalAlign=top;align=center;html=1;fontSize=12;fontStyle=0;aspect=fixed;pointerEvents=1;shape=mxgraph.aws4.file_system;" parent="1" vertex="1">
          <mxGeometry x="465" y="490" width="78" height="73" as="geometry" />
        </mxCell>
        <mxCell id="gKZlpl1UDv_a1la2Z4zy-12" style="edgeStyle=orthogonalEdgeStyle;rounded=0;orthogonalLoop=1;jettySize=auto;html=1;" parent="1" source="gKZlpl1UDv_a1la2Z4zy-4" target="gKZlpl1UDv_a1la2Z4zy-6" edge="1">
          <mxGeometry relative="1" as="geometry" />
        </mxCell>
        <mxCell id="gKZlpl1UDv_a1la2Z4zy-4" value="SQL Server EE" style="sketch=0;points=[[0,0,0],[0.25,0,0],[0.5,0,0],[0.75,0,0],[1,0,0],[0,1,0],[0.25,1,0],[0.5,1,0],[0.75,1,0],[1,1,0],[0,0.25,0],[0,0.5,0],[0,0.75,0],[1,0.25,0],[1,0.5,0],[1,0.75,0]];outlineConnect=0;fontColor=#232F3E;fillColor=#C925D1;strokeColor=#ffffff;dashed=0;verticalLabelPosition=bottom;verticalAlign=top;align=center;html=1;fontSize=12;fontStyle=0;aspect=fixed;shape=mxgraph.aws4.resourceIcon;resIcon=mxgraph.aws4.database;" parent="1" vertex="1">
          <mxGeometry x="100" y="230" width="78" height="78" as="geometry" />
        </mxCell>
        <mxCell id="gKZlpl1UDv_a1la2Z4zy-13" style="edgeStyle=orthogonalEdgeStyle;rounded=0;orthogonalLoop=1;jettySize=auto;html=1;" parent="1" source="gKZlpl1UDv_a1la2Z4zy-5" target="gKZlpl1UDv_a1la2Z4zy-7" edge="1">
          <mxGeometry relative="1" as="geometry" />
        </mxCell>
        <mxCell id="gKZlpl1UDv_a1la2Z4zy-5" value="SQL Server EE" style="sketch=0;points=[[0,0,0],[0.25,0,0],[0.5,0,0],[0.75,0,0],[1,0,0],[0,1,0],[0.25,1,0],[0.5,1,0],[0.75,1,0],[1,1,0],[0,0.25,0],[0,0.5,0],[0,0.75,0],[1,0.25,0],[1,0.5,0],[1,0.75,0]];outlineConnect=0;fontColor=#232F3E;fillColor=#C925D1;strokeColor=#ffffff;dashed=0;verticalLabelPosition=bottom;verticalAlign=top;align=center;html=1;fontSize=12;fontStyle=0;aspect=fixed;shape=mxgraph.aws4.resourceIcon;resIcon=mxgraph.aws4.database;" parent="1" vertex="1">
          <mxGeometry x="465" y="230" width="78" height="78" as="geometry" />
        </mxCell>
        <mxCell id="gKZlpl1UDv_a1la2Z4zy-6" value="Ec2" style="sketch=0;outlineConnect=0;fontColor=#232F3E;gradientColor=none;fillColor=#ED7100;strokeColor=none;dashed=0;verticalLabelPosition=bottom;verticalAlign=top;align=center;html=1;fontSize=12;fontStyle=0;aspect=fixed;pointerEvents=1;shape=mxgraph.aws4.instance2;" parent="1" vertex="1">
          <mxGeometry x="115" y="340" width="48" height="48" as="geometry" />
        </mxCell>
        <mxCell id="gKZlpl1UDv_a1la2Z4zy-7" value="Ec2" style="sketch=0;outlineConnect=0;fontColor=#232F3E;gradientColor=none;fillColor=#ED7100;strokeColor=none;dashed=0;verticalLabelPosition=bottom;verticalAlign=top;align=center;html=1;fontSize=12;fontStyle=0;aspect=fixed;pointerEvents=1;shape=mxgraph.aws4.instance2;" parent="1" vertex="1">
          <mxGeometry x="480" y="340" width="48" height="48" as="geometry" />
        </mxCell>
        <mxCell id="gKZlpl1UDv_a1la2Z4zy-10" value="VPC" style="points=[[0,0],[0.25,0],[0.5,0],[0.75,0],[1,0],[1,0.25],[1,0.5],[1,0.75],[1,1],[0.75,1],[0.5,1],[0.25,1],[0,1],[0,0.75],[0,0.5],[0,0.25]];outlineConnect=0;gradientColor=none;html=1;whiteSpace=wrap;fontSize=12;fontStyle=0;container=1;pointerEvents=0;collapsible=0;recursiveResize=0;shape=mxgraph.aws4.group;grIcon=mxgraph.aws4.group_vpc2;strokeColor=#8C4FFF;fillColor=none;verticalAlign=top;align=left;spacingLeft=30;fontColor=#AAB7B8;dashed=0;" parent="1" vertex="1">
          <mxGeometry x="40" y="204" width="190" height="216" as="geometry" />
        </mxCell>
        <mxCell id="gKZlpl1UDv_a1la2Z4zy-14" value="VPC" style="points=[[0,0],[0.25,0],[0.5,0],[0.75,0],[1,0],[1,0.25],[1,0.5],[1,0.75],[1,1],[0.75,1],[0.5,1],[0.25,1],[0,1],[0,0.75],[0,0.5],[0,0.25]];outlineConnect=0;gradientColor=none;html=1;whiteSpace=wrap;fontSize=12;fontStyle=0;container=1;pointerEvents=0;collapsible=0;recursiveResize=0;shape=mxgraph.aws4.group;grIcon=mxgraph.aws4.group_vpc2;strokeColor=#8C4FFF;fillColor=none;verticalAlign=top;align=left;spacingLeft=30;fontColor=#AAB7B8;dashed=0;" parent="1" vertex="1">
          <mxGeometry x="404" y="204" width="200" height="216" as="geometry" />
        </mxCell>
        <mxCell id="gercNNuL4G8uotiZM3GN-11" value="Availability Zone - 3" style="fillColor=none;strokeColor=#147EBA;dashed=1;verticalAlign=top;fontStyle=0;fontColor=#147EBA;whiteSpace=wrap;html=1;" parent="1" vertex="1">
          <mxGeometry x="810" y="140" width="130" height="470" as="geometry" />
        </mxCell>
        <mxCell id="gercNNuL4G8uotiZM3GN-12" style="edgeStyle=orthogonalEdgeStyle;rounded=0;orthogonalLoop=1;jettySize=auto;html=1;dashed=1;" parent="1" source="gercNNuL4G8uotiZM3GN-14" edge="1">
          <mxGeometry relative="1" as="geometry">
            <Array as="points">
              <mxPoint x="631" y="527" />
              <mxPoint x="631" y="527" />
            </Array>
            <mxPoint x="545" y="527" as="targetPoint" />
          </mxGeometry>
        </mxCell>
        <mxCell id="gercNNuL4G8uotiZM3GN-13" style="edgeStyle=orthogonalEdgeStyle;rounded=0;orthogonalLoop=1;jettySize=auto;html=1;dashed=1;" parent="1" target="gercNNuL4G8uotiZM3GN-16" edge="1">
          <mxGeometry relative="1" as="geometry">
            <Array as="points">
              <mxPoint x="666" y="527" />
              <mxPoint x="666" y="527" />
            </Array>
            <mxPoint x="641" y="527" as="sourcePoint" />
          </mxGeometry>
        </mxCell>
        <mxCell id="gercNNuL4G8uotiZM3GN-14" value="Ontap" style="sketch=0;points=[[0,0,0],[0.25,0,0],[0.5,0,0],[0.75,0,0],[1,0,0],[0,1,0],[0.25,1,0],[0.5,1,0],[0.75,1,0],[1,1,0],[0,0.25,0],[0,0.5,0],[0,0.75,0],[1,0.25,0],[1,0.5,0],[1,0.75,0]];outlineConnect=0;fontColor=#232F3E;fillColor=#7AA116;strokeColor=#ffffff;dashed=0;verticalLabelPosition=bottom;verticalAlign=top;align=center;html=1;fontSize=12;fontStyle=0;aspect=fixed;shape=mxgraph.aws4.resourceIcon;resIcon=mxgraph.aws4.fsx_for_netapp_ontap;" parent="1" vertex="1">
          <mxGeometry x="640" y="450" width="78" height="78" as="geometry" />
        </mxCell>
        <mxCell id="gercNNuL4G8uotiZM3GN-15" style="edgeStyle=orthogonalEdgeStyle;rounded=0;orthogonalLoop=1;jettySize=auto;html=1;entryX=0.5;entryY=1;entryDx=0;entryDy=0;" parent="1" source="gercNNuL4G8uotiZM3GN-16" target="gercNNuL4G8uotiZM3GN-20" edge="1">
          <mxGeometry relative="1" as="geometry" />
        </mxCell>
        <mxCell id="gercNNuL4G8uotiZM3GN-16" value="Secondary - DR" style="sketch=0;outlineConnect=0;fontColor=#232F3E;gradientColor=none;fillColor=#7AA116;strokeColor=none;dashed=0;verticalLabelPosition=bottom;verticalAlign=top;align=center;html=1;fontSize=12;fontStyle=0;aspect=fixed;pointerEvents=1;shape=mxgraph.aws4.file_system;" parent="1" vertex="1">
          <mxGeometry x="836" y="490" width="78" height="73" as="geometry" />
        </mxCell>
        <mxCell id="gercNNuL4G8uotiZM3GN-17" style="edgeStyle=orthogonalEdgeStyle;rounded=0;orthogonalLoop=1;jettySize=auto;html=1;" parent="1" source="gercNNuL4G8uotiZM3GN-18" target="gercNNuL4G8uotiZM3GN-19" edge="1">
          <mxGeometry relative="1" as="geometry" />
        </mxCell>
        <mxCell id="gercNNuL4G8uotiZM3GN-18" value="SQL Server EE" style="sketch=0;points=[[0,0,0],[0.25,0,0],[0.5,0,0],[0.75,0,0],[1,0,0],[0,1,0],[0.25,1,0],[0.5,1,0],[0.75,1,0],[1,1,0],[0,0.25,0],[0,0.5,0],[0,0.75,0],[1,0.25,0],[1,0.5,0],[1,0.75,0]];outlineConnect=0;fontColor=#232F3E;fillColor=#C925D1;strokeColor=#ffffff;dashed=0;verticalLabelPosition=bottom;verticalAlign=top;align=center;html=1;fontSize=12;fontStyle=0;aspect=fixed;shape=mxgraph.aws4.resourceIcon;resIcon=mxgraph.aws4.database;" parent="1" vertex="1">
          <mxGeometry x="836" y="230" width="78" height="78" as="geometry" />
        </mxCell>
        <mxCell id="gercNNuL4G8uotiZM3GN-19" value="Ec2" style="sketch=0;outlineConnect=0;fontColor=#232F3E;gradientColor=none;fillColor=#ED7100;strokeColor=none;dashed=0;verticalLabelPosition=bottom;verticalAlign=top;align=center;html=1;fontSize=12;fontStyle=0;aspect=fixed;pointerEvents=1;shape=mxgraph.aws4.instance2;" parent="1" vertex="1">
          <mxGeometry x="851" y="340" width="48" height="48" as="geometry" />
        </mxCell>
        <mxCell id="gercNNuL4G8uotiZM3GN-20" value="VPC" style="points=[[0,0],[0.25,0],[0.5,0],[0.75,0],[1,0],[1,0.25],[1,0.5],[1,0.75],[1,1],[0.75,1],[0.5,1],[0.25,1],[0,1],[0,0.75],[0,0.5],[0,0.25]];outlineConnect=0;gradientColor=none;html=1;whiteSpace=wrap;fontSize=12;fontStyle=0;container=1;pointerEvents=0;collapsible=0;recursiveResize=0;shape=mxgraph.aws4.group;grIcon=mxgraph.aws4.group_vpc2;strokeColor=#8C4FFF;fillColor=none;verticalAlign=top;align=left;spacingLeft=30;fontColor=#AAB7B8;dashed=0;" parent="1" vertex="1">
          <mxGeometry x="775" y="204" width="200" height="216" as="geometry" />
        </mxCell>
        <mxCell id="gercNNuL4G8uotiZM3GN-23" value="VPC" style="points=[[0,0],[0.25,0],[0.5,0],[0.75,0],[1,0],[1,0.25],[1,0.5],[1,0.75],[1,1],[0.75,1],[0.5,1],[0.25,1],[0,1],[0,0.75],[0,0.5],[0,0.25]];outlineConnect=0;gradientColor=none;html=1;whiteSpace=wrap;fontSize=12;fontStyle=0;container=1;pointerEvents=0;collapsible=0;recursiveResize=0;shape=mxgraph.aws4.group;grIcon=mxgraph.aws4.group_vpc2;strokeColor=#8C4FFF;fillColor=none;verticalAlign=top;align=left;spacingLeft=30;fontColor=#AAB7B8;dashed=0;" parent="1" vertex="1">
          <mxGeometry x="12" y="170" width="986" height="486" as="geometry" />
        </mxCell>
        <mxCell id="gercNNuL4G8uotiZM3GN-24" value="" style="sketch=0;outlineConnect=0;fontColor=#232F3E;gradientColor=none;fillColor=#7AA116;strokeColor=none;dashed=0;verticalLabelPosition=bottom;verticalAlign=top;align=center;html=1;fontSize=12;fontStyle=0;aspect=fixed;pointerEvents=1;shape=mxgraph.aws4.bucket_with_objects;" parent="gercNNuL4G8uotiZM3GN-23" vertex="1">
          <mxGeometry x="259" y="65" width="53.85" height="56" as="geometry" />
        </mxCell>
        <mxCell id="gercNNuL4G8uotiZM3GN-22" value="Replicação síncrona" style="text;strokeColor=none;align=center;fillColor=none;html=1;verticalAlign=middle;whiteSpace=wrap;rounded=0;fontColor=#232f3e;" parent="gercNNuL4G8uotiZM3GN-23" vertex="1">
          <mxGeometry x="221" y="180" width="160" height="30" as="geometry" />
        </mxCell>
        <mxCell id="gercNNuL4G8uotiZM3GN-21" value="Replicação assíncrona" style="text;strokeColor=none;align=center;fillColor=none;html=1;verticalAlign=middle;whiteSpace=wrap;rounded=0;fontColor=#232f3e;" parent="gercNNuL4G8uotiZM3GN-23" vertex="1">
          <mxGeometry x="593" y="180" width="160" height="30" as="geometry" />
        </mxCell>
        <mxCell id="gercNNuL4G8uotiZM3GN-30" value="" style="endArrow=classic;startArrow=classic;html=1;rounded=0;" parent="gercNNuL4G8uotiZM3GN-23" edge="1">
          <mxGeometry width="50" height="50" relative="1" as="geometry">
            <mxPoint x="218" y="203" as="sourcePoint" />
            <mxPoint x="388" y="203" as="targetPoint" />
          </mxGeometry>
        </mxCell>
        <mxCell id="gercNNuL4G8uotiZM3GN-29" value="" style="endArrow=classic;startArrow=classic;html=1;rounded=0;" parent="gercNNuL4G8uotiZM3GN-23" edge="1">
          <mxGeometry width="50" height="50" relative="1" as="geometry">
            <mxPoint x="592" y="203" as="sourcePoint" />
            <mxPoint x="758" y="204" as="targetPoint" />
          </mxGeometry>
        </mxCell>
        <mxCell id="gercNNuL4G8uotiZM3GN-31" value="" style="endArrow=classic;html=1;rounded=0;" parent="gercNNuL4G8uotiZM3GN-23" target="gercNNuL4G8uotiZM3GN-24" edge="1">
          <mxGeometry width="50" height="50" relative="1" as="geometry">
            <mxPoint x="168" y="94" as="sourcePoint" />
            <mxPoint x="218" y="44" as="targetPoint" />
          </mxGeometry>
        </mxCell>
        <mxCell id="gercNNuL4G8uotiZM3GN-32" value="S3 - Backup" style="text;strokeColor=none;align=center;fillColor=none;html=1;verticalAlign=middle;whiteSpace=wrap;rounded=0;fontColor=#232f3e;" parent="gercNNuL4G8uotiZM3GN-23" vertex="1">
          <mxGeometry x="247.5" y="42" width="72" height="18" as="geometry" />
        </mxCell>
      </root>
    </mxGraphModel>
  </diagram>
</mxfile>
